# Blender v3.0.1 OBJ File: 'enemy1.blend'
# www.blender.org
o Icosphere
v -0.067306 -0.143748 0.148349
v 0.391708 -0.143679 0.385121
v 0.694000 -0.143679 0.161281
v 0.551223 0.223442 0.050552
v 0.327449 0.223442 0.216252
v 0.100711 0.223442 0.054637
v 0.184350 0.223442 -0.210949
v 0.462785 0.223442 -0.213476
v 0.743324 0.051778 0.164701
v 0.380590 0.051778 0.433297
v -0.091411 0.054384 0.170737
v 0.522848 0.184870 -0.297742
v 0.649925 0.184870 0.081636
v 0.328386 0.184870 0.319728
v 0.002589 0.184870 0.087506
v 0.122769 0.184870 -0.294111
v 0.551223 -0.233764 0.050552
v 0.327449 -0.233764 0.216252
v 0.100711 -0.233764 0.054637
v 0.184350 -0.233764 -0.210949
v 0.462785 -0.233764 -0.213476
v 0.564586 -0.174472 -0.287416
v 0.625460 -0.176867 0.139695
v 0.391057 -0.176867 0.313265
v 0.000548 -0.176798 0.125620
v 0.074205 -0.170970 -0.281158
v 0.537038 0.038456 -0.487380
v 0.046638 -0.149576 -0.318384
v 0.600274 -0.146075 -0.337486
v 0.735668 -0.146075 0.066723
v 0.293671 -0.143748 0.405648
v 0.293023 -0.176798 0.334091
v 0.677022 -0.174472 0.048254
v 0.652592 -0.297610 0.266619
v 0.479946 -0.297610 0.394459
v 0.479574 -0.316565 0.353421
v 0.613447 -0.316565 0.254291
v 0.622759 -0.390892 0.237512
v 0.504768 -0.390892 0.324882
v 0.504514 -0.403846 0.296835
v 0.596007 -0.403846 0.229087
v 0.564423 -0.530240 0.193470
v 0.518993 -0.530240 0.227110
v 0.518895 -0.535228 0.216311
v 0.554123 -0.535228 0.190226
v 0.380590 -0.062101 0.433297
v -0.073712 -0.149576 0.063775
v 0.328386 -0.195193 0.319728
v -0.029789 -0.170970 0.049062
v 0.183668 -0.262805 0.389685
v -0.016333 -0.262805 0.247128
v 0.183308 -0.281116 0.350039
v 0.021262 -0.281116 0.234535
v 0.135021 -0.404270 0.328246
v 0.026818 -0.404270 0.251121
v 0.134826 -0.414177 0.306797
v 0.047157 -0.414177 0.244308
v 0.122486 -0.521667 0.226184
v 0.080276 -0.521667 0.196097
v 0.122410 -0.525532 0.217816
v 0.088210 -0.525532 0.193439
v -0.091411 -0.064707 0.170737
v 0.122769 -0.195193 -0.294111
v 0.002589 -0.195193 0.087506
v -0.072377 -0.246545 -0.016552
v 0.006223 -0.246545 -0.266136
v 0.024226 -0.260517 -0.241824
v -0.043691 -0.260517 -0.026161
v -0.008738 -0.379351 -0.103065
v 0.028083 -0.379351 -0.219989
v 0.036518 -0.385896 -0.208599
v 0.004700 -0.385896 -0.107567
v 0.054315 -0.493868 -0.163361
v 0.064488 -0.493868 -0.195663
v 0.066818 -0.495676 -0.192516
v 0.058028 -0.495676 -0.164604
v 0.537038 -0.053109 -0.504850
v 0.743324 -0.062101 0.164701
v 0.522848 -0.195193 -0.297742
v 0.649925 -0.195193 0.081636
v 0.663944 -0.240400 -0.281000
v 0.752468 -0.240400 -0.016717
v 0.640610 -0.258967 -0.248263
v 0.714124 -0.258967 -0.028793
v 0.660684 -0.374661 -0.226527
v 0.712880 -0.374661 -0.070699
v 0.646925 -0.385608 -0.207225
v 0.690271 -0.385608 -0.077819
v 0.608328 -0.514929 -0.172756
v 0.628701 -0.514929 -0.111933
v 0.602958 -0.519202 -0.165222
v 0.619877 -0.519202 -0.114713
v 0.794157 0.115031 0.127060
v 0.280371 0.054384 0.435737
v 0.794157 -0.125354 0.127060
v 0.280371 -0.064707 0.435737
v 0.728007 0.051778 0.144016
v 0.365273 0.051778 0.412612
v 0.728007 -0.062101 0.144016
v 0.365273 -0.062101 0.412612
v 0.329757 0.115031 0.470938
v 0.329757 -0.125354 0.470938
v 0.299761 0.054384 0.408533
v -0.072020 0.054384 0.143534
v 0.299761 -0.064707 0.408533
v -0.072020 -0.064707 0.143534
v 0.319521 -0.233764 -0.212176
v -0.140796 0.115031 0.135536
v 0.106361 0.037723 -0.483540
v -0.140796 -0.125354 0.135536
v 0.106361 -0.053841 -0.501010
v 0.032780 0.115031 -0.415636
v 0.610619 0.115031 -0.420881
v 0.032780 -0.125354 -0.415636
v 0.610619 -0.125354 -0.420881
v 0.153378 0.130367 -0.608686
v 0.485582 0.133156 -0.609833
v 0.153378 0.103016 -0.675183
v 0.485582 0.105804 -0.676330
v 0.191118 0.438761 -0.749958
v 0.441446 0.441007 -0.749613
v 0.191118 0.446984 -0.803511
v 0.441446 0.449230 -0.803167
v 0.228794 0.948225 -0.689212
v 0.394211 0.948904 -0.687873
v 0.228794 0.980163 -0.705394
v 0.394211 0.980841 -0.704055
v 0.260510 1.130438 -0.356021
v 0.355467 1.130069 -0.355242
v 0.260510 1.149018 -0.347234
v 0.355467 1.148649 -0.346455
v 0.277471 1.028822 -0.131421
v 0.334036 1.028603 -0.130957
v 0.277471 1.039890 -0.126187
v 0.334036 1.039671 -0.125723
vt 0.436495 0.170051
vt 0.586492 0.000408
vt 0.624819 0.080095
vt 0.113957 0.833567
vt 0.126208 0.877384
vt 0.113957 0.877348
vt 0.720206 0.878475
vt 0.711218 0.836762
vt 0.720206 0.836625
vt 0.684549 0.694134
vt 0.406961 0.895997
vt 0.340862 0.694134
vt 0.802697 0.085927
vt 0.974704 0.155277
vt 0.921774 0.172444
vt 0.909010 0.357457
vt 0.876290 0.312428
vt 0.729103 0.312428
vt 0.696427 0.357457
vt 0.630734 0.155277
vt 0.683619 0.172444
vt 0.802719 0.030320
vt 0.802685 0.123983
vt 0.885556 0.184194
vt 0.853901 0.281616
vt 0.751467 0.281616
vt 0.719813 0.184194
vt 0.556925 0.691622
vt 0.431583 0.720806
vt 0.514249 0.660690
vt 0.393472 0.694523
vt 0.385652 0.657645
vt 0.399993 0.661825
vt 0.802366 0.869568
vt 0.862257 0.819488
vt 0.901476 0.869568
vt 0.925606 0.485048
vt 0.885278 0.452535
vt 0.896596 0.446585
vt 0.230010 0.934610
vt 0.321183 0.900849
vt 0.335720 0.934610
vt 0.513588 0.623476
vt 0.632765 0.709857
vt 0.394805 0.709857
vt 0.463433 0.818075
vt 0.565783 0.818075
vt 0.440571 0.849621
vt 0.597190 0.720806
vt 0.679580 0.654387
vt 0.600793 0.524394
vt 0.700189 0.595503
vt 0.406911 0.856743
vt 0.363885 0.725345
vt 0.389520 0.732816
vt 0.422883 0.834705
vt 0.827721 0.786947
vt 0.866406 0.786947
vt 0.763926 0.501318
vt 0.661811 0.446021
vt 0.740792 0.446021
vt 0.321613 0.536975
vt 0.277167 0.582310
vt 0.301999 0.525500
vt 0.097799 0.923692
vt 0.071492 0.867264
vt 0.082329 0.863175
vt 0.300392 0.620667
vt 0.318665 0.666671
vt 0.292736 0.616188
vt 0.717768 0.410907
vt 0.288369 0.588864
vt 0.090392 0.836362
vt 0.097799 0.833567
vt 0.633940 0.502134
vt 0.630628 0.520647
vt 0.630628 0.504534
vt 0.851729 0.739778
vt 0.855088 0.737814
vt 0.869983 0.737814
vt 0.663790 0.410907
vt 0.691362 0.358273
vt 0.594885 0.883782
vt 0.431940 0.883782
vt 0.447845 0.861836
vt 0.587636 0.849621
vt 0.579868 0.861835
vt 0.619370 0.895997
vt 0.803617 0.448586
vt 0.847639 0.399601
vt 0.869949 0.448586
vt 0.070676 0.839251
vt 0.043052 0.886386
vt 0.050481 0.833567
vt 0.884463 0.486528
vt 0.140085 0.525500
vt 0.097196 0.652089
vt 0.097196 0.561735
vt 0.811752 0.399601
vt 0.817162 0.358273
vt 0.044838 0.624431
vt 0.044838 0.575549
vt 0.894132 0.401368
vt 0.900255 0.398149
vt 0.054241 0.889535
vt 0.064623 0.935433
vt 0.634755 0.503890
vt 0.637322 0.521187
vt 0.634755 0.519328
vt 0.000408 0.599041
vt 0.000408 0.579972
vt 0.923217 0.359529
vt 0.925606 0.358273
vt 0.819846 0.359733
vt 0.854519 0.403342
vt 0.660072 0.719768
vt 0.614880 0.859731
vt 0.605159 0.845525
vt 0.644209 0.724585
vt 0.090237 0.713201
vt 0.041909 0.767057
vt 0.041909 0.723196
vt 0.126208 0.689392
vt 0.090237 0.806827
vt 0.633007 0.833420
vt 0.322429 0.537484
vt 0.336740 0.562091
vt 0.327393 0.569918
vt 0.286850 0.855371
vt 0.258292 0.816503
vt 0.291832 0.857488
vt 0.333528 0.727904
vt 0.340032 0.682925
vt 0.340032 0.733560
vt 0.331198 0.614102
vt 0.326819 0.617768
vt 0.252145 0.900849
vt 0.338895 0.526299
vt 0.340046 0.537932
vt 0.338895 0.537041
vt 0.328163 0.658606
vt 0.326953 0.659619
vt 0.254507 0.855371
vt 0.256915 0.815918
vt 0.000408 0.735733
vt 0.000408 0.723615
vt 0.498096 0.596095
vt 0.512421 0.569374
vt 0.498570 0.618094
vt 0.371538 0.688130
vt 0.311788 0.776246
vt 0.275666 0.718861
vt 0.314806 0.729109
vt 0.948260 0.373928
vt 0.926422 0.392197
vt 0.928927 0.358273
vt 0.332712 0.815103
vt 0.245406 0.758866
vt 0.276351 0.525500
vt 0.241433 0.649935
vt 0.241433 0.549272
vt 0.192152 0.633214
vt 0.140900 0.602445
vt 0.192152 0.573860
vt 0.266587 0.720223
vt 0.939062 0.402433
vt 0.931828 0.444060
vt 0.340032 0.734376
vt 0.337313 0.756033
vt 0.337313 0.736479
vt 0.313891 0.680807
vt 0.317435 0.680275
vt 0.939282 0.450095
vt 0.945351 0.500830
vt 0.332712 0.684275
vt 0.164133 0.869518
vt 0.140900 0.680275
vt 0.164133 0.703577
vt 0.205961 0.869602
vt 0.229194 0.680452
vt 0.229194 0.892903
vt 0.140900 0.892727
vt 0.205961 0.703660
vt 0.042236 0.999592
vt 0.000408 0.833567
vt 0.042236 0.833651
vt 0.975519 0.000408
vt 0.984988 0.166454
vt 0.975519 0.166454
vt 0.701005 0.836641
vt 0.710402 0.878515
vt 0.701005 0.878531
vt 0.975519 0.167269
vt 0.984973 0.333199
vt 0.975519 0.333177
vt 0.868418 0.714681
vt 0.890705 0.524419
vt 0.890705 0.736998
vt 0.824653 0.714669
vt 0.802366 0.524394
vt 0.824653 0.546711
vt 0.802366 0.736973
vt 0.868418 0.546723
vt 0.996958 0.692064
vt 0.953193 0.524094
vt 0.996958 0.524106
vt 0.976235 0.905637
vt 0.963964 0.737842
vt 0.976235 0.737814
vt 0.110430 0.877499
vt 0.098614 0.833567
vt 0.110430 0.833757
vt 0.127795 0.857354
vt 0.140085 0.689392
vt 0.140085 0.857354
vt 0.302375 0.524684
vt 0.152229 0.358288
vt 0.340046 0.444744
vt 0.638301 0.119249
vt 0.551264 0.561436
vt 0.393157 0.159816
vt 0.398168 0.090364
vt 0.108309 0.368578
vt 0.114557 0.438228
vt 0.088920 0.396790
vt 0.703227 0.819104
vt 0.775359 0.719140
vt 0.801550 0.835809
vt 0.340862 0.212186
vt 0.373497 0.131847
vt 0.724908 0.000408
vt 0.766500 0.026136
vt 0.055451 0.318022
vt 0.078921 0.317444
vt 0.066071 0.183750
vt 0.171341 0.028263
vt 0.080231 0.193345
vt 0.024965 0.160185
vt 0.365960 0.336952
vt 0.351758 0.346990
vt 0.457612 0.513582
vt 0.576201 0.518619
vt 0.581709 0.523578
vt 0.144709 0.000408
vt 0.171677 0.015569
vt 0.457207 0.500785
vt 0.701005 0.706584
vt 0.801550 0.533003
vt 0.290750 0.007453
vt 0.340046 0.065457
vt 0.336802 0.068467
vt 0.902292 0.944419
vt 0.949984 0.817618
vt 0.963149 0.944419
vt 0.952377 0.736998
vt 0.904720 0.605409
vt 0.939655 0.605413
vt 0.625635 0.519262
vt 0.629812 0.503090
vt 0.629812 0.520218
vt 0.932750 0.524096
vt 0.624819 0.459079
vt 0.915049 0.817603
vt 0.942745 0.737823
vt 0.126208 0.833604
vt 0.711218 0.878612
vt 0.805653 0.819488
vt 0.905179 0.495786
vt 0.625635 0.501318
vt 0.078824 0.930852
vt 0.321613 0.668395
vt 0.633940 0.522913
vt 0.818997 0.792048
vt 0.670579 0.358273
vt 0.764741 0.486528
vt 0.140085 0.688577
vt 0.803163 0.358273
vt 0.070676 0.937137
vt 0.637322 0.502134
vt 0.126208 0.832752
vt 0.626658 0.824142
vt 0.336740 0.525500
vt 0.336985 0.680275
vt 0.340046 0.525500
vt 0.247980 0.815918
vt 0.231184 0.788521
vt 0.276351 0.679459
vt 0.140900 0.625612
vt 0.230010 0.761175
vt 0.340032 0.757922
vt 0.948260 0.503185
vt 0.000408 0.999509
vt 0.984988 0.000408
vt 0.710402 0.836625
vt 0.984973 0.167291
vt 0.953193 0.692052
vt 0.963964 0.905665
vt 0.098614 0.877309
vt 0.127795 0.689392
vt 0.364486 0.212173
vt 0.625635 0.071688
vt 0.000408 0.286608
vt 0.752225 0.524394
vt 0.296196 0.002400
vt 0.891521 0.736998
vt 0.625635 0.502134
vt 0.911940 0.524094
vt 0.621538 0.456125
vt 0.921935 0.737814
vn -0.9482 0.0000 0.3176
vn 0.8143 0.0000 0.5804
vn 0.8037 0.0000 -0.5951
vn 0.0000 1.0000 -0.0000
vn -0.4701 -0.8684 0.1575
vn -0.2950 -0.8685 -0.3984
vn 0.2878 -0.8685 -0.4037
vn 0.4729 -0.8684 0.1489
vn 0.0045 -0.8685 0.4958
vn -0.3968 -0.9082 0.1329
vn -0.2490 -0.9082 -0.3363
vn 0.2429 -0.9082 -0.3408
vn 0.3991 -0.9082 0.1257
vn 0.0038 -0.9082 0.4184
vn 0.0000 -1.0000 -0.0000
vn -0.0787 0.6526 -0.7536
vn 0.5085 0.5196 0.6867
vn 0.5077 0.6684 0.5436
vn -0.8855 0.3717 -0.2789
vn 0.0045 0.8685 0.4958
vn -0.3968 0.9082 0.1329
vn -0.2490 0.9082 -0.3363
vn 0.2429 0.9082 -0.3408
vn 0.3991 0.9082 0.1257
vn 0.0038 0.9082 0.4184
vn -0.0039 0.7436 0.6686
vn -0.2950 0.8685 -0.3984
vn -0.2950 0.8684 -0.3984
vn 0.5615 -0.3312 0.7583
vn -0.5544 -0.3632 -0.7488
vn -0.4864 0.5788 0.6546
vn 0.8509 0.4740 -0.2266
vn -0.1941 -0.2208 0.9558
vn -0.5445 0.4036 -0.7353
vn -0.1848 -0.2384 0.9534
vn 0.9077 0.3778 -0.1827
vn 0.9841 0.1579 -0.0818
vn 0.5472 -0.3930 0.7390
vn -0.5316 0.4495 -0.7179
vn 0.2878 0.8685 -0.4037
vn 0.2878 0.8684 -0.4037
vn -0.5796 -0.0531 0.8132
vn -0.6795 0.6684 -0.3026
vn -0.4677 0.5922 0.6562
vn 0.5338 -0.3928 -0.7489
vn -0.5008 -0.5056 0.7026
vn 0.5737 0.1523 -0.8048
vn 0.3753 0.1403 0.9162
vn -0.9069 0.3856 -0.1699
vn 0.4876 0.5426 -0.6840
vn 0.1260 -0.3734 0.9191
vn -0.9845 0.1627 -0.0662
vn 0.4729 0.8685 0.1489
vn 0.4729 0.8684 0.1489
vn 0.9228 0.2529 0.2906
vn 0.9284 -0.2294 0.2924
vn 0.0530 0.6375 -0.7687
vn -0.4761 0.5626 0.6759
vn -0.0967 0.4215 -0.9017
vn -0.0194 0.5392 -0.8420
vn -0.7750 0.0898 0.6255
vn -0.9398 -0.1706 -0.2960
vn -0.8342 -0.1526 0.5300
vn -0.9117 -0.2937 -0.2871
vn 0.8954 0.3445 0.2820
vn -0.4701 0.8684 0.1575
vn -0.4701 0.8685 0.1575
vn 0.9468 -0.0556 -0.3171
vn 0.3911 0.6526 0.6489
vn 0.7746 0.5767 -0.2595
vn -0.8648 -0.4102 0.2897
vn -0.8563 0.4296 0.2868
vn -0.9375 0.1502 0.3140
vn 0.1308 0.3364 -0.9326
vn 0.7175 0.2469 0.6514
vn 0.2340 0.1423 -0.9618
vn 0.8373 -0.1070 0.5361
vn 0.8767 -0.3809 -0.2937
vn -0.5951 0.0000 -0.8037
vn -0.8037 0.0000 0.5951
vn 0.5804 0.0000 -0.8143
vn -0.8143 0.0000 -0.5804
vn 0.9538 0.0000 0.3004
vn 0.0068 -0.6562 0.7545
vn 0.0045 0.7600 0.6499
vn -0.6705 0.0000 0.7419
vn 0.7975 -0.1131 0.5926
vn 0.0003 -0.4134 -0.9106
vn -0.9679 -0.0471 0.2468
vn -0.0041 -0.7919 -0.6107
vn 0.9430 -0.3077 0.1265
vn 0.9973 -0.0724 -0.0111
vn 0.9939 -0.1023 0.0421
vn -0.0044 0.3500 0.9368
vn -0.9906 -0.1350 -0.0207
vn -0.9883 0.0651 -0.1376
vn -0.0072 -0.1805 0.9836
vn -0.9898 -0.0643 -0.1269
vn 0.0003 0.1207 -0.9927
vn 0.9976 0.0293 -0.0621
vn 0.0003 0.8782 -0.4783
vn 0.9965 -0.0376 -0.0743
vn -0.0070 -0.9043 0.4269
vn 0.0091 0.4275 -0.9040
vn 0.0002 -0.8967 -0.4427
vn -0.9962 0.0371 -0.0784
vn 0.0002 0.9111 0.4122
vn -0.4701 -0.8685 0.1575
vn 0.4729 -0.8685 0.1489
vn 0.0048 0.7342 0.6789
vn -0.5316 0.4494 -0.7179
vn -0.0968 0.4215 -0.9017
vn -0.8648 -0.4103 0.2897
vn 0.0078 -0.6599 0.7513
vn 0.0059 0.7641 0.6451
vn -0.7937 -0.1140 0.5975
vn 0.6782 0.0000 0.7349
vn 0.0050 -0.4170 -0.9089
vn -0.9337 -0.3312 0.1362
vn 0.0047 -0.8046 -0.5938
vn 0.9736 -0.0428 0.2243
vn 0.9935 -0.0515 -0.1016
vn 0.9931 -0.1156 -0.0177
vn 0.0003 0.3465 0.9381
vn -0.9916 -0.1198 0.0493
vn -0.9948 -0.0460 -0.0908
vn 0.0003 -0.1833 0.9831
vn -0.9958 -0.0909 -0.0140
vn 0.0076 0.1178 -0.9930
vn 0.0073 0.8771 -0.4803
vn 0.9921 0.0535 -0.1131
vn 0.0003 -0.9053 0.4248
s off
f 113/1/1 95/2/1 93/3/1
f 96/4/2 103/5/2 94/6/2
f 78/7/3 97/8/3 9/9/3
f 114/10/4 102/11/4 95/12/4
f 12/13/5 93/14/5 13/15/5
f 13/15/6 101/16/6 14/17/6
f 15/18/7 101/16/7 108/19/7
f 15/18/8 112/20/8 16/21/8
f 12/13/9 112/20/9 113/22/9
f 8/23/10 13/15/10 4/24/10
f 5/25/11 13/15/11 14/17/11
f 6/26/12 14/17/12 15/18/12
f 6/26/13 16/21/13 7/27/13
f 8/23/14 16/21/14 12/13/14
f 4/24/15 6/26/15 7/27/15
f 107/28/4 17/29/4 21/30/4
f 33/31/16 82/32/16 84/33/16
f 24/34/17 37/35/17 23/36/17
f 25/37/18 51/38/18 53/39/18
f 26/40/19 68/41/19 49/42/19
f 79/43/20 114/10/20 63/44/20
f 80/45/21 21/30/21 17/29/21
f 18/46/22 80/45/22 17/29/22
f 19/47/23 48/48/23 18/46/23
f 63/44/24 19/47/24 20/49/24
f 63/44/25 20/49/25 107/28/25
f 111/50/26 119/51/26 118/52/26
f 2/53/27 95/12/27 3/54/27
f 2/53/27 48/48/27 102/11/27
f 23/55/28 48/48/28 24/56/28
f 3/54/27 80/45/27 23/55/27
f 37/35/29 40/57/29 41/58/29
f 2/59/30 34/60/30 35/61/30
f 23/62/31 34/63/31 3/64/31
f 24/65/32 35/66/32 36/67/32
f 41/68/33 42/69/33 38/70/33
f 34/60/34 39/71/34 35/61/34
f 37/72/35 38/70/35 34/63/35
f 36/67/36 39/73/36 40/74/36
f 43/75/28 45/76/28 44/77/28
f 40/57/37 43/78/37 44/79/37
f 41/58/38 44/79/38 45/80/38
f 38/81/39 43/82/39 39/71/39
f 1/83/40 102/11/40 31/84/40
f 31/84/41 48/48/41 32/85/41
f 32/85/41 64/86/41 25/87/41
f 1/83/41 64/86/41 110/88/41
f 53/89/42 56/90/42 52/91/42
f 32/92/43 50/93/43 31/94/43
f 32/95/44 53/89/44 52/91/44
f 1/96/45 50/97/45 51/98/45
f 57/99/46 60/100/46 56/90/46
f 51/98/47 54/101/47 55/102/47
f 53/39/48 55/103/48 57/104/48
f 52/105/49 54/106/49 50/93/49
f 61/107/40 58/108/40 60/109/40
f 55/102/50 58/110/50 59/111/50
f 57/104/51 59/112/51 61/113/51
f 56/90/52 58/114/52 54/115/52
f 28/116/53 110/88/53 47/117/53
f 28/116/54 63/44/54 114/10/54
f 49/118/53 63/44/53 26/119/53
f 47/117/53 64/86/53 49/118/53
f 66/120/55 69/121/55 70/122/55
f 28/123/56 65/124/56 66/120/56
f 49/118/57 65/125/57 47/117/57
f 26/126/58 66/127/58 67/128/58
f 72/129/59 73/130/59 69/131/59
f 68/132/60 69/133/60 65/134/60
f 67/128/61 70/135/61 71/136/61
f 67/137/62 72/129/62 68/41/62
f 75/138/54 73/139/54 76/140/54
f 71/136/63 74/141/63 75/142/63
f 71/143/64 76/144/64 72/129/64
f 70/122/65 73/145/65 74/146/65
f 29/147/66 95/12/66 115/148/66
f 29/147/67 79/43/67 22/149/67
f 33/31/67 79/43/67 80/45/67
f 30/150/67 80/45/67 95/12/67
f 83/151/68 88/152/68 87/153/68
f 22/154/69 81/155/69 29/156/69
f 22/157/70 84/158/70 83/151/70
f 30/159/71 81/160/71 82/161/71
f 85/162/72 90/163/72 86/164/72
f 81/160/73 86/164/73 82/161/73
f 84/158/74 86/165/74 88/152/74
f 83/166/75 85/167/75 81/155/75
f 90/168/67 91/169/67 92/170/67
f 88/152/76 90/171/76 92/172/76
f 87/173/77 89/174/77 85/167/77
f 87/153/78 92/172/78 91/175/78
f 10/176/79 93/177/79 9/178/79
f 46/179/79 95/180/79 102/181/79
f 46/179/79 101/182/79 10/176/79
f 9/178/79 95/180/79 78/183/79
f 97/184/79 100/185/79 98/186/79
f 46/187/15 99/188/15 78/189/15
f 10/190/80 100/191/80 46/192/80
f 9/193/4 98/194/4 10/195/4
f 94/196/81 108/197/81 101/198/81
f 96/199/81 110/200/81 62/201/81
f 94/196/81 102/202/81 96/199/81
f 62/201/81 108/197/81 11/203/81
f 103/204/81 106/205/81 104/206/81
f 94/207/4 104/208/4 11/209/4
f 11/210/82 106/211/82 62/212/82
f 96/213/15 106/214/15 105/215/15
f 107/28/4 19/47/4 18/46/4
f 110/216/83 112/217/83 108/218/83
f 109/219/84 113/22/84 112/20/84
f 111/50/85 115/148/85 77/220/85
f 27/221/86 115/222/86 113/1/86
f 109/223/87 114/224/87 111/225/87
f 116/226/88 121/227/88 117/228/88
f 27/221/89 119/229/89 77/230/89
f 109/219/90 117/231/90 27/232/90
f 109/223/91 118/233/91 116/234/91
f 122/235/92 124/236/92 120/237/92
f 118/233/93 120/237/93 116/234/93
f 118/233/94 123/238/94 122/235/94
f 119/229/95 121/239/95 123/240/95
f 127/241/96 129/242/96 131/243/96
f 122/235/97 127/244/97 126/245/97
f 123/240/98 125/246/98 127/241/98
f 120/247/99 125/248/99 121/227/99
f 128/249/100 134/250/100 132/251/100
f 124/252/101 129/253/101 125/254/101
f 126/245/102 128/249/102 124/236/102
f 126/255/103 131/256/103 130/257/103
f 134/258/104 133/259/104 132/260/104
f 131/256/105 134/261/105 130/257/105
f 129/242/106 135/262/106 131/243/106
f 128/263/107 133/264/107 129/253/107
f 113/1/1 115/222/1 95/2/1
f 96/4/2 105/265/2 103/5/2
f 78/7/3 99/266/3 97/8/3
f 95/12/4 115/148/4 114/10/4
f 114/10/4 110/88/4 102/11/4
f 12/13/108 113/22/108 93/14/108
f 13/15/6 93/14/6 101/16/6
f 15/18/7 14/17/7 101/16/7
f 15/18/109 108/19/109 112/20/109
f 12/13/9 16/21/9 112/20/9
f 8/23/10 12/13/10 13/15/10
f 5/25/11 4/24/11 13/15/11
f 6/26/12 5/25/12 14/17/12
f 6/26/13 15/18/13 16/21/13
f 8/23/14 7/27/14 16/21/14
f 7/27/15 8/23/15 4/24/15
f 4/24/15 5/25/15 6/26/15
f 107/28/4 18/46/4 17/29/4
f 33/31/16 30/150/16 82/32/16
f 24/34/17 36/267/17 37/35/17
f 25/37/18 1/268/18 51/38/18
f 26/40/19 67/137/19 68/41/19
f 79/43/20 115/148/20 114/10/20
f 80/45/21 79/43/21 21/30/21
f 18/46/22 48/48/22 80/45/22
f 19/47/23 64/86/23 48/48/23
f 63/44/24 64/86/24 19/47/24
f 107/28/25 21/30/25 79/43/25
f 79/43/25 63/44/25 107/28/25
f 111/50/110 77/220/110 119/51/110
f 2/53/28 102/11/28 95/12/28
f 2/53/27 24/56/27 48/48/27
f 23/55/27 80/45/27 48/48/27
f 3/54/27 95/12/27 80/45/27
f 37/35/29 36/267/29 40/57/29
f 2/59/30 3/269/30 34/60/30
f 23/62/31 37/72/31 34/63/31
f 24/65/32 2/270/32 35/66/32
f 41/68/33 45/271/33 42/69/33
f 34/60/34 38/81/34 39/71/34
f 37/72/35 41/68/35 38/70/35
f 36/67/36 35/66/36 39/73/36
f 43/75/28 42/272/28 45/76/28
f 40/57/37 39/273/37 43/78/37
f 41/58/38 40/57/38 44/79/38
f 38/81/111 42/274/111 43/82/111
f 1/83/40 110/88/40 102/11/40
f 31/84/41 102/11/41 48/48/41
f 32/85/40 48/48/40 64/86/40
f 1/83/40 25/87/40 64/86/40
f 53/89/42 57/99/42 56/90/42
f 32/92/43 52/105/43 50/93/43
f 32/95/44 25/275/44 53/89/44
f 1/96/45 31/276/45 50/97/45
f 57/99/46 61/277/46 60/100/46
f 51/98/47 50/97/47 54/101/47
f 53/39/48 51/38/48 55/103/48
f 52/105/49 56/278/49 54/106/49
f 61/107/40 59/279/40 58/108/40
f 55/102/50 54/101/50 58/110/50
f 57/104/51 55/103/51 59/112/51
f 56/90/52 60/100/52 58/114/52
f 28/116/53 114/10/53 110/88/53
f 28/116/53 26/119/53 63/44/53
f 49/118/54 64/86/54 63/44/54
f 47/117/53 110/88/53 64/86/53
f 66/120/55 65/124/55 69/121/55
f 28/123/56 47/280/56 65/124/56
f 49/118/57 68/281/57 65/125/57
f 26/126/58 28/282/58 66/127/58
f 72/129/112 76/144/112 73/130/112
f 68/132/60 72/283/60 69/133/60
f 67/128/61 66/127/61 70/135/61
f 67/137/62 71/143/62 72/129/62
f 75/138/54 74/284/54 73/139/54
f 71/136/63 70/135/63 74/141/63
f 71/143/64 75/285/64 76/144/64
f 70/122/65 69/121/65 73/145/65
f 29/147/67 30/150/67 95/12/67
f 29/147/67 115/148/67 79/43/67
f 33/31/67 22/149/67 79/43/67
f 30/150/66 33/31/66 80/45/66
f 83/151/68 84/158/68 88/152/68
f 22/154/69 83/166/69 81/155/69
f 22/157/70 33/286/70 84/158/70
f 30/159/113 29/287/113 81/160/113
f 85/162/72 89/288/72 90/163/72
f 81/160/73 85/162/73 86/164/73
f 84/158/74 82/289/74 86/165/74
f 83/166/75 87/173/75 85/167/75
f 90/168/66 89/290/66 91/169/66
f 88/152/76 86/165/76 90/171/76
f 87/173/77 91/291/77 89/174/77
f 87/153/78 88/152/78 92/172/78
f 10/176/79 101/182/79 93/177/79
f 46/179/79 78/183/79 95/180/79
f 46/179/79 102/181/79 101/182/79
f 9/178/79 93/177/79 95/180/79
f 97/184/79 99/292/79 100/185/79
f 46/187/15 100/293/15 99/188/15
f 10/190/80 98/294/80 100/191/80
f 9/193/4 97/295/4 98/194/4
f 94/196/81 11/203/81 108/197/81
f 96/199/81 102/202/81 110/200/81
f 94/196/81 101/198/81 102/202/81
f 62/201/81 110/200/81 108/197/81
f 103/204/81 105/296/81 106/205/81
f 94/207/4 103/297/4 104/208/4
f 11/210/82 104/298/82 106/211/82
f 96/213/15 62/299/15 106/214/15
f 107/28/4 20/49/4 19/47/4
f 110/216/83 114/224/83 112/217/83
f 109/219/114 27/232/114 113/22/114
f 111/50/115 114/10/115 115/148/115
f 27/221/116 77/230/116 115/222/116
f 109/223/117 112/217/117 114/224/117
f 116/226/118 120/247/118 121/227/118
f 27/221/119 117/300/119 119/229/119
f 109/219/120 116/301/120 117/231/120
f 109/223/121 111/225/121 118/233/121
f 122/235/122 126/245/122 124/236/122
f 118/233/123 122/235/123 120/237/123
f 118/233/124 119/302/124 123/238/124
f 119/229/125 117/300/125 121/239/125
f 127/241/126 125/246/126 129/242/126
f 122/235/127 123/238/127 127/244/127
f 123/240/128 121/239/128 125/246/128
f 120/247/129 124/303/129 125/248/129
f 128/249/100 130/304/100 134/250/100
f 124/252/130 128/263/130 129/253/130
f 126/245/131 130/304/131 128/249/131
f 126/255/132 127/305/132 131/256/132
f 134/258/104 135/306/104 133/259/104
f 131/256/105 135/307/105 134/261/105
f 129/242/106 133/308/106 135/262/106
f 128/263/107 132/309/107 133/264/107
